<svg width="73" height="72" viewBox="0 0 73 72" fill="none" xmlns="http://www.w3.org/2000/svg">
<g clip-path="url(#clip0_0_110)">
<path fill-rule="evenodd" clip-rule="evenodd" d="M14.7603 16.347C18.8915 10.7636 24.8224 7.58055 31.5472 5.83176C39.7864 3.68911 48.6052 1.15253 55.8267 5.6676C64.7926 11.2733 73.4235 20.6475 71.9875 31.1159C70.5865 41.329 57.9485 44.0957 49.7061 50.2869C40.3628 57.305 33.2155 71.8054 21.9398 68.709C10.6227 65.6011 8.8699 50.2571 7.27639 38.6351C6.15602 30.4639 9.8563 22.9751 14.7603 16.347Z" fill="#B3E3FF"/>
<g clip-path="url(#clip1_0_110)">
<g clip-path="url(#clip2_0_110)">
<g clip-path="url(#clip3_0_110)">
<g clip-path="url(#clip4_0_110)">
<path d="M62.6 30.6H47.3V27.9C47.3 27.612 47.1622 27.3413 46.9292 27.1719L37.4 20.2419V17.1H47.3C47.797 17.1 48.2 16.697 48.2 16.2V10.8C48.2 10.303 47.797 9.9 47.3 9.9H37.4C37.4 9.40297 36.997 9 36.5 9C36.003 9 35.6 9.40297 35.6 9.9V20.2419L26.0708 27.1719C25.8378 27.3413 25.7 27.612 25.7 27.9V30.6H10.4C9.90297 30.6 9.5 31.003 9.5 31.5V62.1C9.5 62.597 9.90297 63 10.4 63H62.6C63.097 63 63.5 62.597 63.5 62.1V31.5C63.5 31.003 63.097 30.6 62.6 30.6ZM37.4 11.7H46.4V15.3H37.4V11.7ZM25.7 61.2H11.3V32.4H25.7V61.2ZM40.1 61.2H32.9V52.2H40.1V61.2ZM45.5 61.2H41.9V51.3C41.9 50.803 41.497 50.4 41 50.4H32C31.503 50.4 31.1 50.803 31.1 51.3V61.2H27.5V28.3581L36.5 21.8124L45.5 28.3581V61.2ZM61.7 61.2H47.3V32.4H61.7V61.2Z" fill="black"/>
<path d="M17.6 35.1H14V36.9H17.6V35.1Z" fill="black"/>
<path d="M23 35.1H19.4V36.9H23V35.1Z" fill="black"/>
<path d="M17.6 38.7H14V40.5H17.6V38.7Z" fill="black"/>
<path d="M23 38.7H19.4V40.5H23V38.7Z" fill="black"/>
<path d="M17.6 42.3H14V44.1H17.6V42.3Z" fill="black"/>
<path d="M23 42.3H19.4V44.1H23V42.3Z" fill="black"/>
<path d="M17.6 45.9H14V47.7H17.6V45.9Z" fill="black"/>
<path d="M23 45.9H19.4V47.7H23V45.9Z" fill="black"/>
<path d="M17.6 49.5H14V51.3H17.6V49.5Z" fill="black"/>
<path d="M23 49.5H19.4V51.3H23V49.5Z" fill="black"/>
<path d="M53.6 35.1H50V36.9H53.6V35.1Z" fill="black"/>
<path d="M59 35.1H55.4V36.9H59V35.1Z" fill="black"/>
<path d="M53.6 38.7H50V40.5H53.6V38.7Z" fill="black"/>
<path d="M59 38.7H55.4V40.5H59V38.7Z" fill="black"/>
<path d="M53.6 42.3H50V44.1H53.6V42.3Z" fill="black"/>
<path d="M59 42.3H55.4V44.1H59V42.3Z" fill="black"/>
<path d="M53.6 45.9H50V47.7H53.6V45.9Z" fill="black"/>
<path d="M59 45.9H55.4V47.7H59V45.9Z" fill="black"/>
<path d="M53.6 49.5H50V51.3H53.6V49.5Z" fill="black"/>
<path d="M59 49.5H55.4V51.3H59V49.5Z" fill="black"/>
<path d="M30.2 36C30.2039 39.4777 33.0223 42.296 36.5 42.3C39.9794 42.3 42.8 39.4794 42.8 36C42.8 32.5206 39.9794 29.7 36.5 29.7C33.0206 29.7 30.2 32.5206 30.2 36ZM41 36C41 38.4852 38.9853 40.5 36.5 40.5C34.0148 40.5 32 38.4852 32 36C32.0029 33.516 34.016 31.5029 36.5 31.5C38.9853 31.5 41 33.5147 41 36Z" fill="black"/>
<path d="M35.6 35.1H33.8V36.9H37.4V32.4H35.6V35.1Z" fill="black"/>
</g>
</g>
</g>
</g>
</g>
<defs>
<clipPath id="clip0_0_110">
<rect width="72" height="72" fill="white" transform="translate(0.5)"/>
</clipPath>
<clipPath id="clip1_0_110">
<rect width="54" height="54" fill="white" transform="translate(9.5 9)"/>
</clipPath>
<clipPath id="clip2_0_110">
<rect width="54" height="54" fill="white" transform="translate(9.5 9)"/>
</clipPath>
<clipPath id="clip3_0_110">
<rect width="54" height="54" fill="white" transform="translate(9.5 9)"/>
</clipPath>
<clipPath id="clip4_0_110">
<rect width="54" height="54" fill="white" transform="translate(9.5 9)"/>
</clipPath>
</defs>
</svg>
